<svg width="81" height="81" viewBox="0 0 81 81" fill="none" xmlns="http://www.w3.org/2000/svg">
<path fill-rule="evenodd" clip-rule="evenodd" d="M33 30H48C49.65 30 51 31.35 51 33V48C51 49.65 49.65 51 48 51H33C31.35 51 30 49.65 30 48V33C30 31.35 31.35 30 33 30ZM44 40.5C44 38.57 42.43 37 40.5 37C38.57 37 37 38.57 37 40.5C37 42.43 38.57 44 40.5 44C42.43 44 44 42.43 44 40.5ZM33 48V39H34.181C34.0626 39.4913 34.0019 39.9947 34 40.5C34 44.0899 36.9101 47 40.5 47C44.0899 47 47 44.0899 47 40.5C46.9986 39.9946 46.9379 39.4912 46.819 39H48V48H33ZM44 37H48V33H44V37Z" fill="white"/>
</svg>
